PathFileType	4	(X/Y/Z)	C:\Users\Biomechanik\SynologyDrive\AlexP\Athlete_03\Athlete_3_25_03_31\Deadlift_35kg_01\marker_experimental.trc
DataRate	CameraRate	NumFrames	NumMarkers	Units	OrigDataRate	OrigDataStartFrame	OrigNumFrames
200.000000	200.000000	4	55	mm	200.000000	0	2060
Frame#	Time	BL			BR			GLAB			RFHD			LFHD			C7			T6			SPINMOL			SPINM2			SPINM3			T12			BELTOL			BELT2			BELT3			SACROL			SACR2			SACR3			LTHOL			LTH2			LTH3			LSHAOL			LSHA2			LSHA3			LHEE			LTOE			LM5			RTHOL			RTH2			RTH3			RSHAOL			RSHA2			RSHA3			RHEE			RTOE			RM5			STRN			XIPH			LACR			LUAOL			LUA2			LUA3			LLAOL			LLA2			LLA3			LWRR			LWRU			RACR			RUAOL			RUA2			RUA3			RLAOL			RLA2			RLA3			RWRR			RWRU			
		X1	Y1	Z1	X2	Y2	Z2	X3	Y3	Z3	X4	Y4	Z4	X5	Y5	Z5	X6	Y6	Z6	X7	Y7	Z7	X8	Y8	Z8	X9	Y9	Z9	X10	Y10	Z10	X11	Y11	Z11	X12	Y12	Z12	X13	Y13	Z13	X14	Y14	Z14	X15	Y15	Z15	X16	Y16	Z16	X17	Y17	Z17	X18	Y18	Z18	X19	Y19	Z19	X20	Y20	Z20	X21	Y21	Z21	X22	Y22	Z22	X23	Y23	Z23	X24	Y24	Z24	X25	Y25	Z25	X26	Y26	Z26	X27	Y27	Z27	X28	Y28	Z28	X29	Y29	Z29	X30	Y30	Z30	X31	Y31	Z31	X32	Y32	Z32	X33	Y33	Z33	X34	Y34	Z34	X35	Y35	Z35	X36	Y36	Z36	X37	Y37	Z37	X38	Y38	Z38	X39	Y39	Z39	X40	Y40	Z40	X41	Y41	Z41	X42	Y42	Z42	X43	Y43	Z43	X44	Y44	Z44	X45	Y45	Z45	X46	Y46	Z46	X47	Y47	Z47	X48	Y48	Z48	X49	Y49	Z49	X50	Y50	Z50	X51	Y51	Z51	X52	Y52	Z52	X53	Y53	Z53	X54	Y54	Z54	X55	Y55	Z55	

1	0	2221.01953125	224.3814392089845	431.9566650390629	202.4958496093749	219.5301361083984	326.8535461425782	1209.198486328125	1590.826416015625	401.0505371093752	1145.154296875	1622.181884765625	356.5267028808596	1280.227661132812	1620.219604492188	359.2602844238284	1217.091064453125	1436.286987304688	165.2154235839846	1223.690551757812	1262.9267578125	124.821228027344	1245.541381835938	1225.181030273438	122.3005371093752	1196.0390625	1216.79248046875	116.4110412597658	1229.892700195312	1161.272705078125	130.4383544921877	1228.015502929688	1104.93896484375	146.9764099121096	1242.870361328125	1078.724609375	129.3410797119143	1192.694580078125	1076.483032226562	129.205749511719	1221.438232421875	1016.108032226563	125.1617736816409	1244.79736328125	962.8231201171876	127.458450317383	1193.626342773438	960.9608154296876	128.7207641601565	1220.17626953125	904.3701171875001	107.4169921875002	1403.366821289062	682.5319824218751	214.7584075927737	1373.026489257812	629.5437011718751	162.6490020751956	1388.674560546875	622.1394042968751	210.0837402343753	1397.697265625	327.5575256347657	178.1100616455081	1386.520385742188	266.8549194335938	127.0615386962893	1393.991821289062	265.6389160156251	176.4706878662112	1309.216430664062	68.24093627929696	104.4243316650393	1321.322509765625	47.24312973022469	319.7264709472659	1421.37255859375	30.17067718505868	272.5625610351565	1034.345947265625	696.8847656250001	197.9579467773439	1021.431945800781	638.5097045898439	250.7770843505861	1039.497924804688	635.4841308593751	204.4210357666018	1026.292358398438	345.9693298339844	159.6283569335939	1020.287170410156	274.0158996582032	191.0136413574221	1036.325317382812	285.3597412109376	145.1994018554689	1124.85693359375	62.99977111816413	111.7227478027346	1100.7890625	47.30398178100592	324.9213867187502	1003.703552246094	39.4661827087403	267.6198730468752	1219.55419921875	1350.894409179688	340.044372558594	1219.341796875	1213.300537109375	372.0732727050784	1397.681396484375	1397.022338867188	248.5099182128909	1496.411743164062	1233.928833007812	263.0605773925784	1512.318725585938	1169.901245117188	257.3867797851565	1488.037353515625	1181.029418945312	301.1105651855472	1529.152954101562	974.7254638671876	318.003601074219	1513.204956054688	902.7710571289064	289.4465332031253	1524.367431640625	915.4478149414064	336.664733886719	1519.244018554688	818.3480224609376	375.4920349121097	1451.146240234375	836.0573120117189	414.6159973144534	1045.272216796875	1391.520874023438	264.4085388183595	950.6282348632811	1231.499267578125	274.4339294433595	954.5959472656249	1172.497436523438	306.2128295898439	932.3558959960936	1169.517456054688	258.3725585937502	923.3715209960935	954.809326171875	321.4171447753908	910.4679565429686	912.0318603515625	387.5804138183595	927.8776855468749	895.9832153320312	342.9663391113283	927.4276123046874	822.810546875	397.0154724121095	1003.5263671875	820.8506469726564	424.8871459960939	
2	0.005	2221.019775390625	224.3812103271486	431.9568786621098	202.4954833984374	219.530517578125	326.8528137207032	1209.24951171875	1590.494140625	401.3852844238284	1145.209594726562	1621.951782226562	356.954040527344	1280.269165039062	1619.978759765625	359.6493835449221	1217.099975585938	1436.347412109375	165.2534179687502	1223.684936523438	1262.970581054688	124.7693634033205	1245.530883789062	1225.224243164062	122.2450637817385	1196.028930664062	1216.841186523438	116.3606796264651	1229.874389648438	1161.318115234375	130.3609619140627	1227.996948242188	1104.95458984375	146.8828582763674	1242.85546875	1078.758544921875	129.2635955810549	1192.6796875	1076.5048828125	129.0974426269534	1221.417114257812	1016.129455566406	125.0911941528323	1244.786865234375	962.8225708007814	127.3543930053713	1193.6103515625	960.9615478515626	128.5998992919924	1220.163696289062	904.3626098632814	107.3278274536135	1403.3671875	682.4976196289064	214.6864318847659	1373.037231445312	629.5432739257814	162.5751495361331	1388.675415039062	622.1441040039064	210.0028991699221	1397.699951171875	327.5569152832032	178.0747985839846	1386.515258789062	266.8446960449219	127.0404586791995	1393.991577148438	265.6446533203126	176.4442291259768	1309.217407226562	68.23978424072274	104.423767089844	1321.321533203125	47.24423980712898	319.7253723144534	1421.364379882812	30.14151191711434	272.5920410156253	1034.343994140625	696.8761596679689	197.8802032470705	1021.424499511719	638.5117187500001	250.7080535888674	1039.49267578125	635.4813232421876	204.3580017089846	1026.287109375	345.9631042480469	159.6029663085939	1020.28173828125	274.0089111328126	190.9900665283205	1036.31982421875	285.3522644042969	145.1756439208986	1124.8515625	63.00024795532234	111.7157897949221	1100.7900390625	47.30289077758795	324.9216003417971	1003.699279785156	39.47150039672858	267.609100341797	1219.571899414062	1350.862548828125	340.0236511230471	1219.384033203125	1213.284912109375	372.0846862792971	1397.692504882812	1397.0234375	248.4946899414065	1496.403198242188	1233.925415039062	263.004821777344	1512.26904296875	1169.886962890625	257.2978820800784	1488.032958984375	1180.996215820312	301.0476074218753	1529.197143554688	974.7166137695314	317.9024353027347	1513.211181640625	902.7594604492189	289.3468933105472	1524.381225585938	915.4355468750001	336.5706176757815	1519.265502929688	818.3376464843751	375.3963623046878	1451.1806640625	836.0465087890626	414.545349121094	1045.285766601562	1391.537719726562	264.4207763671877	950.6447143554686	1231.517578125	274.4199829101564	954.6269531249999	1172.531860351562	306.1683349609377	932.3581542968749	1169.541748046875	258.3523864746095	923.366027832031	954.8287353515625	321.3700256347658	910.4916381835936	912.0234985351562	387.5181884765627	927.8746948242186	895.9967651367188	342.9189453125002	927.4277954101561	822.8208618164062	396.957977294922	1003.531127929687	820.8462524414064	424.8175354003908	
3	0.01	2221.02001953125	224.3811187744142	431.9571533203129	202.4951019287109	219.5308837890625	326.8520812988282	1209.308471679688	1590.107543945312	401.7738342285159	1145.273681640625	1621.683959960938	357.4499511718752	1280.317626953125	1619.699340820312	360.1019592285159	1217.110107421875	1436.41748046875	165.2992401123049	1223.678344726562	1263.021606445312	124.7100524902346	1245.51953125	1225.274047851562	122.1803054809573	1196.017578125	1216.897827148438	116.3015518188479	1229.854125976562	1161.370239257812	130.2720947265627	1227.976196289062	1104.972900390625	146.7742919921877	1242.837768554688	1078.795288085938	129.1718902587893	1192.66259765625	1076.529541015625	128.973831176758	1221.3916015625	1016.1533203125	125.0078506469729	1244.774536132812	962.8218994140626	127.2337036132815	1193.592041015625	960.9618530273439	128.4609375000002	1220.1494140625	904.3537597656251	107.2229385375979	1403.367919921875	682.4625244140626	214.6017150878909	1373.043701171875	629.5407714843751	162.4913787841799	1388.677124023438	622.1488647460939	209.9100646972659	1397.703125	327.556365966797	178.0352172851565	1386.510375976562	266.8333435058594	127.0159759521487	1393.991821289062	265.6505432128907	176.4144287109378	1309.218383789062	68.23837280273446	104.4230117797854	1321.320556640625	47.245403289795	319.7242431640627	1421.356201171875	30.11259651184091	272.621276855469	1034.34130859375	696.8668823242189	197.7908477783205	1021.416198730469	638.5142211914064	250.6285552978518	1039.486694335938	635.4779663085939	204.2847595214846	1026.28125	345.9558715820313	159.5731811523439	1020.275268554688	274.0015258789063	190.963333129883	1036.313110351562	285.3437805175782	145.1480407714846	1124.846313476562	62.99904632568366	111.7096481323244	1100.790771484375	47.301742553711	324.9217834472659	1003.695251464844	39.47655487060553	267.598846435547	1219.592407226562	1350.825561523438	340.0003051757815	1219.431518554688	1213.265380859375	372.0939025878909	1397.70556640625	1397.024658203125	248.4777832031253	1496.396362304688	1233.9208984375	262.9409179687503	1512.238647460938	1169.87451171875	257.2033996582034	1488.030883789062	1180.96142578125	300.9763183593753	1529.242065429688	974.7061157226564	317.7867126464847	1513.21728515625	902.7464599609376	289.2328796386722	1524.396606445312	915.4208984375001	336.4618225097659	1519.2900390625	818.3250732421876	375.2854003906253	1451.220336914062	836.0343017578126	414.4607238769534	1045.301635742188	1391.557006835938	264.4358520507814	950.6640624999999	1231.540283203125	274.4060363769533	954.6652221679686	1172.57080078125	306.1178588867189	932.3597412109374	1169.570434570312	258.3303222656252	923.3603515624998	954.851318359375	321.3153381347658	910.5185546874999	912.0144653320312	387.4468994140627	927.8713378906249	896.0123291015625	342.8635864257814	927.4286499023436	822.83251953125	396.8904113769533	1003.536987304687	820.8424682617189	424.7352600097658	
4	0.015	2221.0205078125	224.3811950683595	431.9574584960941	202.4947357177734	219.5312042236328	326.8513488769532	1209.374877929688	1589.66845703125	402.2142333984377	1145.346313476562	1621.379516601562	358.0118713378909	1280.372680664062	1619.38232421875	360.6157836914065	1217.121337890625	1436.496826171875	165.3531799316409	1223.671020507812	1263.079956054688	124.6438217163088	1245.50732421875	1225.330200195312	122.1064529418948	1196.005249023438	1216.962036132812	116.2337188720705	1229.832275390625	1161.4287109375	130.1723785400393	1227.95361328125	1104.993896484375	146.6513977050784	1242.817626953125	1078.833862304688	129.0656890869143	1192.643432617188	1076.557006835938	128.836135864258	1221.36181640625	1016.179321289063	124.9111480712893	1244.760375976562	962.8211669921876	127.0970001220705	1193.571533203125	960.9615478515626	128.3053131103518	1220.133666992188	904.3437500000001	107.1024475097659	1403.369384765625	682.4275512695314	214.5043792724612	1373.04443359375	629.5356445312501	162.3985748291018	1388.679809570312	622.1535034179689	209.8060760498049	1397.706665039062	327.555877685547	177.9919128417971	1386.505981445312	266.8210144042969	126.9882049560549	1393.992919921875	265.6564331054689	176.3816375732424	1309.219604492188	68.23667907714852	104.422058105469	1321.319580078125	47.24657440185555	319.723083496094	1421.34814453125	30.08464431762704	272.6494750976565	1034.337646484375	696.8571166992189	197.6905670166018	1021.407409667969	638.5172729492189	250.5391693115236	1039.480102539062	635.4739379882814	204.2016448974611	1026.2744140625	345.9476318359376	159.5390930175783	1020.267761230469	273.9941406250001	190.9337615966799	1036.305419921875	285.3344116210938	145.1167449951174	1124.841186523438	62.99576950073249	111.7048110961916	1100.791381835938	47.30054092407233	324.9219360351565	1003.691955566406	39.48085403442389	267.5899658203127	1219.61572265625	1350.783813476562	339.9746398925784	1219.483276367188	1213.241333007812	372.0989379882815	1397.720581054688	1397.025756835938	248.4595184326174	1496.39208984375	1233.915161132812	262.8694152832034	1512.23095703125	1169.864013671875	257.1054382324222	1488.03173828125	1180.926147460938	300.8974914550784	1529.285766601562	974.6940307617189	317.6574401855472	1513.222900390625	902.7323608398439	289.1053771972659	1524.413452148438	915.4039306640626	336.339050292969	1519.3173828125	818.3102416992189	375.1596984863284	1451.264526367188	836.0203247070314	414.362731933594	1045.31982421875	1391.57861328125	264.4539184570314	950.6860351562499	1231.56787109375	274.3927612304689	954.7108154296874	1172.613891601562	306.0621337890627	932.3603515624999	1169.603759765625	258.3068237304689	923.3546142578123	954.876953125	321.2532958984377	910.5482177734374	912.0053100585938	387.367156982422	927.8676757812499	896.02978515625	342.8004760742189	927.4303588867186	822.8453369140625	396.8128356933595	1003.544189453125	820.8397827148439	424.6402893066408	
